<svg width="480" height="480" viewBox="0 0 480 480" fill="none" xmlns="http://www.w3.org/2000/svg">
<path d="M168.087 335.953C161.61 330.133 158.9 323.048 158.72 314.827C158.648 311.541 159.947 309.84 163.415 309.917C167.745 310.013 172.079 309.917 176.411 309.936C178.159 309.943 179.865 310.198 180.166 312.367C180.924 317.842 182.39 322.991 188.028 325.351C195.704 328.564 203.651 329.07 211.337 325.628C221.191 321.215 226.182 312.549 229.478 302.859C231.124 298.021 232.364 292.961 231.574 287.482C229.116 286.819 227.538 288.677 225.718 289.529C213.194 295.39 200.239 297.911 187.065 292.555C171.538 286.242 165.424 273.008 163.933 257.374C161.593 232.852 178.671 204.986 202.058 198.571C215.723 194.823 228.767 195.75 240.475 204.693C241.247 205.283 241.956 206.099 243.744 205.731C243.263 196.372 250.214 198.832 255.641 198.788C265.115 198.71 264.949 198.736 263.586 208.433C259.748 235.747 256.141 263.093 252.276 290.403C250.431 303.433 248.28 316.243 239.457 327.081C221.843 348.718 189.784 353.064 168.087 335.953ZM231.414 220.025C223.782 214.54 215.447 213.692 206.791 216.815C192.14 222.1 181.281 241.759 184.736 256.962C187.81 270.489 197.606 280.658 214.584 275.838C228.136 271.991 236.001 262.336 239.559 249.143C242.482 238.305 240.771 228.37 231.414 220.025Z" fill="black"/>
<path d="M361.154 199.591C372.41 206.528 374.34 217.187 373.022 228.574C370.751 248.207 367.757 267.756 365.132 287.349C364.803 289.804 364.095 291.42 361.21 291.37C355.571 291.273 349.929 291.342 344.651 291.342C343.153 289.903 343.442 288.529 343.629 287.234C346.181 269.641 349.222 252.102 351.177 234.443C352.621 221.393 347.901 215.29 337.862 214.608C330.277 214.092 318.9 219.07 314.2 230.151C311.676 236.099 311.307 242.425 310.393 248.643C308.484 261.629 306.794 274.649 305.159 287.672C304.787 290.632 303.492 291.605 300.591 291.462C296.438 291.259 292.256 291.242 288.106 291.484C284.976 291.667 283.97 290.845 284.465 287.537C287.14 269.628 289.644 251.693 292.159 233.76C295.019 213.363 297.83 192.959 300.659 172.557C301.732 164.827 302.784 157.094 303.873 149.366C304.291 146.396 305.54 144.492 309.054 144.712C312.704 144.94 316.395 144.966 320.04 144.697C324.702 144.352 324.764 147.007 324.278 150.367C322.115 165.325 320.012 180.292 317.823 195.247C317.526 197.27 317.004 199.403 318.599 200.915C320.388 202.61 321.958 200.612 323.548 199.988C335.907 195.134 348.303 193.521 361.154 199.591Z" fill="black"/>
<path d="M92.1271 155.842C89.5169 174.037 86.9535 191.793 84.4189 209.552C80.7113 235.53 76.9631 261.503 73.4105 287.502C72.99 290.579 71.6963 291.406 68.9319 291.389C58.2708 291.323 47.6084 291.281 36.9482 291.393C33.6497 291.428 32.3672 290.073 32.7311 286.908C32.7881 286.413 32.7833 285.91 32.8441 285.415C34.6168 270.978 34.618 270.791 49.2259 270.83C54.0246 270.843 55.1026 268.455 55.6492 264.54C59.5763 236.407 63.6046 208.288 67.581 180.161C68.9986 170.134 70.4518 160.11 71.7028 150.062C72.1774 146.25 73.7299 144.393 77.7983 144.688C81.4442 144.953 85.1298 144.876 88.7876 144.715C92.7898 144.539 93.7536 146.414 92.9396 149.979C92.5348 151.752 92.4283 153.593 92.1271 155.842Z" fill="black"/>
<path d="M434.433 186.331C434.352 187.267 434.362 187.772 434.286 188.264C432.366 200.626 432.617 198.531 443.901 198.766C452.97 198.956 454.434 196.717 452.373 208.409C450.727 217.74 451.998 216.224 443.43 216.295C431.046 216.398 430.959 216.318 429.106 228.934C426.403 247.332 423.817 265.748 421.226 284.162C420.212 291.37 420.268 291.382 412.951 291.372C409.788 291.368 406.622 291.259 403.462 291.35C400.22 291.444 399.473 289.807 399.892 286.933C403.028 265.415 406.093 243.887 409.248 222.372C410.041 216.965 409.535 216.218 404.087 216.029C395.436 215.73 395.909 215.764 396.518 207.464C397.276 197.126 398.3 198.761 406.317 198.842C410.501 198.884 412.532 197.978 412.951 193.19C413.688 184.768 415.498 176.446 416.579 168.045C416.961 165.08 418.127 164.035 421.046 164.127C425.031 164.253 429.037 164.187 433.014 163.912C436.699 163.658 437.82 165.243 437.249 168.656C436.287 174.395 435.401 180.147 434.433 186.331Z" fill="black"/>
<path d="M112.201 271.412C115.485 248.108 118.667 225.23 121.774 202.343C122.097 199.963 123.03 198.706 125.557 198.744C130.055 198.812 134.556 198.837 139.054 198.746C142.257 198.681 142.959 200.048 142.512 203.097C140.292 218.221 138.296 233.378 136.157 248.514C134.344 261.347 132.294 274.15 130.676 287.007C130.203 290.764 128.654 291.632 125.192 291.433C120.235 291.149 115.25 291.361 109.75 291.361C109.517 284.402 111.72 278.206 112.201 271.412Z" fill="black"/>
<path d="M142.811 146.757C150.098 150.737 152.532 157.427 149.433 164.075C146.934 169.435 139.422 172.019 133.493 169.558C127.71 167.158 124.722 160.413 126.687 154.192C128.613 148.098 135.509 144.781 142.811 146.757Z" fill="black"/>
</svg>
